<?xml version="1.0" encoding="UTF-8" standalone="no"?>
<!-- Created with Inkscape (http://www.inkscape.org/) -->

<svg
   xmlns:dc="http://purl.org/dc/elements/1.1/"
   xmlns:cc="http://creativecommons.org/ns#"
   xmlns:rdf="http://www.w3.org/1999/02/22-rdf-syntax-ns#"
   xmlns:svg="http://www.w3.org/2000/svg"
   xmlns="http://www.w3.org/2000/svg"
   xmlns:sodipodi="http://sodipodi.sourceforge.net/DTD/sodipodi-0.dtd"
   xmlns:inkscape="http://www.inkscape.org/namespaces/inkscape"
   width="210mm"
   height="297mm"
   viewBox="0 0 210 297"
   version="1.1"
   id="svg8"
   inkscape:version="0.92.5 (2060ec1f9f, 2020-04-08)"
   sodipodi:docname="icon.svg"
   inkscape:export-filename="/home/erikpolzin/bitmap.png"
   inkscape:export-xdpi="96"
   inkscape:export-ydpi="96">
  <defs
     id="defs2" />
  <sodipodi:namedview
     id="base"
     pagecolor="#ffffff"
     bordercolor="#666666"
     borderopacity="1.0"
     inkscape:pageopacity="0.0"
     inkscape:pageshadow="2"
     inkscape:zoom="0.7"
     inkscape:cx="499.79961"
     inkscape:cy="534.26724"
     inkscape:document-units="mm"
     inkscape:current-layer="layer1"
     showgrid="false"
     inkscape:window-width="1440"
     inkscape:window-height="739"
     inkscape:window-x="0"
     inkscape:window-y="0"
     inkscape:window-maximized="1" />
  <metadata
     id="metadata5">
    <rdf:RDF>
      <cc:Work
         rdf:about="">
        <dc:format>image/svg+xml</dc:format>
        <dc:type
           rdf:resource="http://purl.org/dc/dcmitype/StillImage" />
        <dc:title></dc:title>
      </cc:Work>
    </rdf:RDF>
  </metadata>
  <g
     inkscape:label="Layer 1"
     inkscape:groupmode="layer"
     id="layer1">
    <g
       id="g4557">
      <path
         sodipodi:nodetypes="cccsc"
         inkscape:connector-curvature="0"
         id="path36"
         d="M 161.00793,130.69391 57.652474,174.87932 c 3.460827,4.02768 8.589997,6.5828 14.346412,6.60528 0,0 74.450434,2.52678 86.944104,-3.44472 9.86467,-4.71493 6.63364,-22.15683 6.63364,-22.15683"
         style="fill:#29299c;fill-opacity:1;stroke-width:0.26458332" />
      <path
         transform="scale(0.26458333)"
         id="path34"
         d="M 596.48633 466.57617 L 205.06641 633.91797 C 205.29172 634.18816 205.54812 634.43049 205.77734 634.69727 L 596.41211 467.69727 C 596.42946 467.31109 596.46731 466.95972 596.48633 466.57617 z "
         style="fill:#0000ff;stroke-width:0.99999994" />
      <path
         inkscape:connector-curvature="0"
         id="path4551"
         d="m 145.22094,107.87259 c -3.45951,-4.26008 -8.73771,-6.97735 -14.67818,-6.97735 H 60.239041 c -10.46994,0 -18.898586,8.42865 -18.898586,18.89859 v 17.64802 z"
         style="fill:#3a3ac4;fill-opacity:1;stroke-width:0.26458332" />
      <path
         transform="scale(0.26458333)"
         id="rect10"
         d="M 581.19141 411.74805 L 188.57227 523.50586 L 188.57227 588.23438 C 188.57227 605.66782 194.76446 621.5638 205.06641 633.91797 L 596.48633 466.57617 C 596.65209 463.23292 596.84596 459.93246 597.14258 456.80469 C 597.14258 439.6854 591.16106 424.02479 581.19141 411.74805 z "
         style="fill:#ae007e;stroke-width:0.99999994;fill-opacity:1" />
    </g>
  </g>
</svg>
